<svg width="42" height="32" viewBox="0 0 42 32" fill="none" xmlns="http://www.w3.org/2000/svg">
<path d="M1 3C1 1.89543 1.89543 1 3 1H39C40.1046 1 41 1.89543 41 3V15H1V3Z" stroke="#01355B" stroke-width="2"/>
<path d="M14 5H28" stroke="#128CE4" stroke-width="2" stroke-linecap="round"/>
<rect x="1" y="15" width="40" height="6" rx="1" stroke="#01355B" stroke-width="2"/>
<path d="M6 25L9 28" stroke="#01355B" stroke-linecap="round"/>
<path d="M9 28L6 31" stroke="#01355B" stroke-linecap="round"/>
<path d="M9 25L12 28" stroke="#01355B" stroke-linecap="round"/>
<path d="M12 28L9 31" stroke="#01355B" stroke-linecap="round"/>
<path d="M12 25L15 28" stroke="#01355B" stroke-linecap="round"/>
<path d="M15 28L12 31" stroke="#01355B" stroke-linecap="round"/>
<path d="M33 25L30 28" stroke="#01355B" stroke-linecap="round"/>
<path d="M30 28L33 31" stroke="#01355B" stroke-linecap="round"/>
<path d="M30 25L27 28" stroke="#01355B" stroke-linecap="round"/>
<path d="M27 28L30 31" stroke="#01355B" stroke-linecap="round"/>
<path d="M36 25L33 28" stroke="#01355B" stroke-linecap="round"/>
<path d="M33 28L36 31" stroke="#01355B" stroke-linecap="round"/>
</svg>
