<svg width="28" height="27" viewBox="0 0 28 27" fill="none" xmlns="http://www.w3.org/2000/svg">
<path d="M21.5342 23.0223C21.5345 23.0223 21.5336 23.0252 21.5307 23.0311C21.5325 23.0252 21.534 23.0223 21.5342 23.0223ZM21.3321 22.9501C21.4047 23.0129 21.4522 23.063 21.4828 23.1C21.4522 23.137 21.4047 23.1871 21.3321 23.2499C21.0624 23.4831 20.5847 23.7613 19.8644 24.0247C18.4359 24.5472 16.3627 24.9 14 24.9C11.6373 24.9 9.56413 24.5472 8.13559 24.0247C7.41527 23.7613 6.93766 23.4831 6.66796 23.2499C6.59529 23.1871 6.5478 23.137 6.51723 23.1C6.5478 23.063 6.59529 23.0129 6.66796 22.9501C6.93766 22.7169 7.41527 22.4387 8.13559 22.1753C9.56413 21.6528 11.6373 21.3 14 21.3C16.3627 21.3 18.4359 21.6528 19.8644 22.1753C20.5847 22.4387 21.0624 22.7169 21.3321 22.9501ZM6.46577 23.0223C6.46604 23.0223 6.4675 23.0252 6.4693 23.031C6.4664 23.0252 6.46549 23.0223 6.46577 23.0223ZM6.46577 23.1777C6.46549 23.1777 6.4664 23.1748 6.4693 23.169C6.4675 23.1748 6.46604 23.1777 6.46577 23.1777ZM21.5307 23.169C21.5336 23.1748 21.5345 23.1777 21.5342 23.1777C21.534 23.1777 21.5325 23.1748 21.5307 23.169Z" fill="white" stroke="#01355B" stroke-width="3"/>
<path d="M20.2778 7.66479C20.2778 9.34932 19.4782 13.0811 18.1111 16.4284C17.4337 18.0869 16.6594 19.5428 15.8534 20.5565C15.0045 21.6241 14.368 21.9 14 21.9C13.632 21.9 12.9955 21.6241 12.1467 20.5565C11.3406 19.5428 10.5663 18.0869 9.88893 16.4284C8.52177 13.0811 7.72223 9.34932 7.72223 7.66479C7.72223 4.72389 10.3939 2.1 14 2.1C17.6061 2.1 20.2778 4.72389 20.2778 7.66479Z" fill="white" stroke="#01355B" stroke-width="3"/>
<path d="M16.2334 8.38759C16.2334 9.77548 15.1724 10.7876 14 10.7876C12.8277 10.7876 11.7667 9.77548 11.7667 8.38759C11.7667 6.99969 12.8277 5.98759 14 5.98759C15.1724 5.98759 16.2334 6.99969 16.2334 8.38759Z" fill="white" stroke="#128CE4" stroke-width="3"/>
</svg>
