<svg width="42" height="36" viewBox="0 0 42 36" fill="none" xmlns="http://www.w3.org/2000/svg">
<path d="M9.19116 27.9812L9.19116 34.32" stroke="#01355B" stroke-width="3" stroke-linecap="round"/>
<path d="M33.2786 27.9812L33.2786 34.32" stroke="#01355B" stroke-width="3" stroke-linecap="round"/>
<path d="M11.3193 5.65967L11.3193 12.4512" stroke="#01355B" stroke-linecap="round"/>
<path d="M29.4302 5.65967L29.4302 12.4512" stroke="#01355B" stroke-linecap="round"/>
<path d="M29.4302 5.65967L29.4302 12.4512" stroke="#01355B" stroke-linecap="round"/>
<path d="M3.90301 13.6072C4.09022 12.6726 4.91092 12 5.86405 12H36.6214C37.5989 12 38.4332 12.7066 38.5942 13.6707L40.4304 24.6707C40.6339 25.8899 39.6938 27 38.4577 27H3.66055C2.39821 27 1.45157 25.8449 1.69951 24.6072L3.90301 13.6072Z" stroke="#01355B" stroke-width="2"/>
<path d="M8.5 0.5H14.5V2.5C14.5 4.15685 13.1569 5.5 11.5 5.5C9.84315 5.5 8.5 4.15685 8.5 2.5V0.5Z" stroke="#128CE4"/>
<path d="M26.5 0.5H32.5V2.5C32.5 4.15685 31.1569 5.5 29.5 5.5C27.8431 5.5 26.5 4.15685 26.5 2.5V0.5Z" stroke="#128CE4"/>
</svg>
