<svg width="25" height="23" viewBox="0 0 25 23" fill="none" xmlns="http://www.w3.org/2000/svg">
<path d="M11.4748 0.927049C11.7741 0.00573825 13.0775 0.00573943 13.3769 0.92705L15.4401 7.27703C15.574 7.68905 15.958 7.96801 16.3912 7.96801H23.0679C24.0367 7.96801 24.4394 9.20762 23.6557 9.77702L18.2541 13.7015C17.9036 13.9562 17.757 14.4075 17.8908 14.8196L19.9541 21.1695C20.2534 22.0908 19.1989 22.857 18.4152 22.2876L13.0136 18.3631C12.6631 18.1084 12.1885 18.1084 11.8381 18.3631L6.43644 22.2876C5.65273 22.857 4.59825 22.0908 4.8976 21.1695L6.96083 14.8196C7.09471 14.4075 6.94805 13.9562 6.59756 13.7015L1.19595 9.77702C0.412235 9.20762 0.815011 7.96801 1.78373 7.96801H8.46049C8.89372 7.96801 9.27767 7.68905 9.41155 7.27703L11.4748 0.927049Z" fill="#F1D12A"/>
</svg>
