<svg width="28" height="27" viewBox="0 0 28 27" fill="none" xmlns="http://www.w3.org/2000/svg">
<mask id="path-1-inside-1" fill="white">
<path fill-rule="evenodd" clip-rule="evenodd" d="M12.231 1.8C11.4904 1.8 10.8103 2.20932 10.4637 2.86383L9.09482 5.448H8.62222C4.20394 5.448 0.622223 9.02973 0.622223 13.448V16.6C0.622223 21.0183 4.20395 24.6 8.62222 24.6H19.3778C23.7961 24.6 27.3778 21.0183 27.3778 16.6V13.448C27.3778 9.02972 23.7961 5.448 19.3778 5.448H18.3106L16.9418 2.86383C16.5951 2.20932 15.9151 1.8 15.1744 1.8H12.231Z"/>
</mask>
<path d="M10.4637 2.86383L13.1147 4.26809L13.1147 4.26809L10.4637 2.86383ZM9.09482 5.448V8.448H10.9006L11.7459 6.85226L9.09482 5.448ZM18.3106 5.448L15.6596 6.85226L16.5048 8.448H18.3106V5.448ZM16.9418 2.86383L14.2907 4.26809L14.2907 4.26809L16.9418 2.86383ZM13.1147 4.26809C12.9414 4.59534 12.6013 4.8 12.231 4.8V-1.2C10.3794 -1.2 8.67934 -0.176697 7.8126 1.45957L13.1147 4.26809ZM11.7459 6.85226L13.1147 4.26809L7.81261 1.45957L6.44377 4.04374L11.7459 6.85226ZM8.62222 8.448H9.09482V2.448H8.62222V8.448ZM3.62222 13.448C3.62222 10.6866 5.8608 8.448 8.62222 8.448V2.448C2.54709 2.448 -2.37778 7.37287 -2.37778 13.448H3.62222ZM3.62222 16.6V13.448H-2.37778V16.6H3.62222ZM8.62222 21.6C5.8608 21.6 3.62222 19.3614 3.62222 16.6H-2.37778C-2.37778 22.6751 2.54709 27.6 8.62222 27.6V21.6ZM19.3778 21.6H8.62222V27.6H19.3778V21.6ZM24.3778 16.6C24.3778 19.3614 22.1392 21.6 19.3778 21.6V27.6C25.4529 27.6 30.3778 22.6751 30.3778 16.6H24.3778ZM24.3778 13.448V16.6H30.3778V13.448H24.3778ZM19.3778 8.448C22.1392 8.448 24.3778 10.6866 24.3778 13.448H30.3778C30.3778 7.37287 25.4529 2.448 19.3778 2.448V8.448ZM18.3106 8.448H19.3778V2.448H18.3106V8.448ZM14.2907 4.26809L15.6596 6.85226L20.9617 4.04374L19.5928 1.45957L14.2907 4.26809ZM15.1744 4.8C14.8041 4.8 14.4641 4.59534 14.2907 4.26809L19.5928 1.45957C18.7261 -0.176698 17.0261 -1.2 15.1744 -1.2V4.8ZM12.231 4.8H15.1744V-1.2H12.231V4.8Z" fill="#01355B" mask="url(#path-1-inside-1)"/>
<path d="M17.7889 14.4C17.7889 16.503 16.0051 18.3 13.6889 18.3C11.3726 18.3 9.58889 16.503 9.58889 14.4C9.58889 12.297 11.3726 10.5 13.6889 10.5C16.0051 10.5 17.7889 12.297 17.7889 14.4Z" stroke="#128CE4" stroke-width="3"/>
<path d="M18.6667 9L22.4 9" stroke="#01355B" stroke-width="2" stroke-linecap="round"/>
</svg>
