<svg width="54" height="68" viewBox="0 0 54 68" fill="none" xmlns="http://www.w3.org/2000/svg">
<path d="M42.9705 12.1875C42.9705 13.7141 42.4423 17.8831 41.4348 23.4002C40.4366 28.8661 38.9923 35.5253 37.21 41.9679C35.4232 48.4269 33.3159 54.5967 31.0089 59.1228C29.8528 61.3907 28.6851 63.1683 27.5384 64.3587C26.3794 65.5617 25.4065 66 24.6176 66C23.8287 66 22.8558 65.5617 21.6968 64.3587C20.5501 63.1683 19.3823 61.3907 18.2263 59.1228C15.9193 54.5967 13.812 48.4269 12.0251 41.9679C10.2428 35.5253 8.79857 28.8661 7.80039 23.4002C6.79284 17.8831 6.26465 13.7141 6.26465 12.1875C6.26465 9.53897 8.01905 6.90153 11.3642 4.84798C14.6846 2.80964 19.3666 1.5 24.6176 1.5C29.8686 1.5 34.5506 2.80964 37.871 4.84798C41.2161 6.90153 42.9705 9.53897 42.9705 12.1875Z" stroke="#01355B" stroke-width="3"/>
<rect y="9.375" width="54" height="58.125" fill="white"/>
<path d="M38.9387 17.6827C38.9387 18.8209 38.5387 21.998 37.763 26.2457C36.9967 30.442 35.8879 35.5543 34.5201 40.4984C33.1478 45.4589 31.5342 50.1787 29.7752 53.6295C28.8932 55.3598 28.0132 56.6934 27.1647 57.5742C26.304 58.4677 25.6399 58.7308 25.1672 58.7308C24.6946 58.7308 24.0305 58.4677 23.1698 57.5742C22.3213 56.6934 21.4412 55.3598 20.5593 53.6295C18.8003 50.1787 17.1867 45.4589 15.8144 40.4984C14.4466 35.5543 13.3378 30.442 12.5715 26.2457C11.7957 21.998 11.3958 18.8209 11.3958 17.6827C11.3958 15.8108 12.6374 13.8765 15.1534 12.3319C17.6447 10.8025 21.1814 9.80768 25.1672 9.80768C29.1531 9.80768 32.6898 10.8025 35.1811 12.3319C37.6971 13.8765 38.9387 15.8108 38.9387 17.6827Z" stroke="#01355B" stroke-width="3"/>
<rect x="6.23071" y="15.5192" width="41.5385" height="44.7115" fill="white"/>
<path d="M32.6632 28.6531C32.6632 32.2997 29.4802 35.4184 25.3468 35.4184C21.2135 35.4184 18.0305 32.2997 18.0305 28.6531C18.0305 25.0064 21.2135 21.8878 25.3468 21.8878C29.4802 21.8878 32.6632 25.0064 32.6632 28.6531Z" stroke="#128CE4" stroke-width="3"/>
</svg>
